# xmcd
#
# Track frame offsets: 
#        150
#        9063
#        20984
#        36052
#        45637
#        57208
#        67302
#        76321
#        86298
#        99704
#        108966
#        120112
#
# Disc length: 1695 seconds
#
# Revision: 0
# Processed by: cddbd v1.5.2PL0 Copyright (c) Steve Scherf et al.
# Submitted via: ExactAudioCopy v0.99pb4
#
DISCID=8b069d0c
DTITLE=Memphis Slim - M Slim Clap Your Hands
DYEAR=1964
DGENRE=Blues
TTITLE0=01 Clap your hands
TTITLE1=02 Not so stuck on me
TTITLE2=03 Rainin' in my heart
TTITLE3=04 Steppin' out tonight
TTITLE4=05 Memphis on the Mississippi
TTITLE5=06 Two of a kind 
TTITLE6=07 Fat and forty
TTITLE7=08 House cleaning
TTITLE8=09 So lonely
TTITLE9=10 That's the way the cookie crumbles
TTITLE10=11 Baby doll
TTITLE11=12 Double crossin' mama
EXTD=
EXTT0=
EXTT1=
EXTT2=
EXTT3=
EXTT4=
EXTT5=
EXTT6=
EXTT7=
EXTT8=
EXTT9=
EXTT10=
EXTT11=
PLAYORDER=
